<?xml version="1.0" standalone="no"?><!DOCTYPE svg PUBLIC "-//W3C//DTD SVG 1.1//EN" "http://www.w3.org/Graphics/SVG/1.1/DTD/svg11.dtd"><svg t="1649579847423" class="icon" viewBox="0 0 1024 1024" version="1.1" xmlns="http://www.w3.org/2000/svg" p-id="1016" xmlns:xlink="http://www.w3.org/1999/xlink" width="200" height="200"><defs><style type="text/css">@font-face { font-family: feedback-iconfont; src: url("//at.alicdn.com/t/font_1031158_u69w8yhxdu.woff2?t=1630033759944") format("woff2"), url("//at.alicdn.com/t/font_1031158_u69w8yhxdu.woff?t=1630033759944") format("woff"), url("//at.alicdn.com/t/font_1031158_u69w8yhxdu.ttf?t=1630033759944") format("truetype"); }
</style></defs><path d="M889.6 704c-28.8-16-48-41.6-64-64l-9.6-12.8c-3.2-6.4-6.4-12.8-6.4-19.2v-172.8c0-83.2-35.2-160-92.8-217.6-32-32-70.4-54.4-115.2-67.2C592 102.4 556.8 64 512 64s-80 38.4-89.6 89.6C300.8 192 214.4 307.2 214.4 444.8V608c0 6.4-3.2 12.8-6.4 19.2l-9.6 12.8c-16 22.4-35.2 48-64 64-19.2 12.8-32 32-32 54.4 0 35.2 28.8 64 64 64h201.6c3.2 76.8 67.2 137.6 144 137.6s140.8-60.8 144-137.6h201.6c35.2 0 64-28.8 64-64 0-22.4-12.8-41.6-32-54.4zM512 96c25.6 0 44.8 19.2 54.4 48-25.6-3.2-48-6.4-73.6-3.2-12.8 0-22.4 3.2-35.2 3.2 9.6-28.8 28.8-48 54.4-48z m0 832c-60.8 0-108.8-48-112-105.6h224c-3.2 60.8-51.2 105.6-112 105.6z m345.6-137.6H166.4c-19.2 0-32-12.8-32-32 0-12.8 6.4-22.4 16-28.8 32-19.2 57.6-48 73.6-73.6l9.6-12.8c9.6-9.6 12.8-25.6 12.8-38.4v-163.2c0-144 108.8-265.6 246.4-275.2h19.2c67.2 0 131.2 25.6 182.4 70.4 54.4 51.2 83.2 118.4 83.2 195.2V608c0 12.8 3.2 25.6 12.8 38.4l9.6 12.8c16 22.4 41.6 54.4 73.6 73.6 9.6 6.4 16 16 16 28.8 0 16-16 28.8-32 28.8z" fill="#777f8a" p-id="1017"></path></svg>