<?xml version="1.0" standalone="no"?><!DOCTYPE svg PUBLIC "-//W3C//DTD SVG 1.1//EN" "http://www.w3.org/Graphics/SVG/1.1/DTD/svg11.dtd"><svg t="1649606055110" class="icon" viewBox="0 0 1256 1024" version="1.1" xmlns="http://www.w3.org/2000/svg" p-id="31957" xmlns:xlink="http://www.w3.org/1999/xlink" width="245.3125" height="200"><defs><style type="text/css">@font-face { font-family: feedback-iconfont; src: url("//at.alicdn.com/t/font_1031158_u69w8yhxdu.woff2?t=1630033759944") format("woff2"), url("//at.alicdn.com/t/font_1031158_u69w8yhxdu.woff?t=1630033759944") format("woff"), url("//at.alicdn.com/t/font_1031158_u69w8yhxdu.ttf?t=1630033759944") format("truetype"); }
</style></defs><path d="M929.33 191.78h-836c-16.57 0-30 13.44-30 30v579.94c0 16.57 13.43 30 30 30h836c16.57 0 30-13.43 30-30V221.78c0-16.56-13.43-30-30-30z m-33.16 392.21c0 23.94-26.67 38.24-46.61 24.98l-130.01-86.43a29.998 29.998 0 0 0-32.68-0.35l-152.39 96.7c-13.11 8.32-30.4 5.26-39.86-7.05l-154.4-200.88c-11.06-14.39-32.25-15.74-45.05-2.88L179.29 524.53c-18.88 18.97-51.27 5.6-51.27-21.16V285.95c0-16.57 13.43-30 30-30h708.15c16.57 0 30 13.43 30 30v298.04z" fill="#5473E8" p-id="31958"></path><path d="M704.14 384.24m-64.01 0a64.01 64.01 0 1 0 128.02 0 64.01 64.01 0 1 0-128.02 0Z" fill="#5473E8" p-id="31959"></path></svg>