<?xml version="1.0" standalone="no"?><!DOCTYPE svg PUBLIC "-//W3C//DTD SVG 1.1//EN" "http://www.w3.org/Graphics/SVG/1.1/DTD/svg11.dtd"><svg t="1649614927505" class="icon" viewBox="0 0 1024 1024" version="1.1" xmlns="http://www.w3.org/2000/svg" p-id="941" xmlns:xlink="http://www.w3.org/1999/xlink" width="200" height="200"><defs><style type="text/css">@font-face { font-family: feedback-iconfont; src: url("//at.alicdn.com/t/font_1031158_u69w8yhxdu.woff2?t=1630033759944") format("woff2"), url("//at.alicdn.com/t/font_1031158_u69w8yhxdu.woff?t=1630033759944") format("woff"), url("//at.alicdn.com/t/font_1031158_u69w8yhxdu.ttf?t=1630033759944") format("truetype"); }
</style></defs><path d="M527.521137 48.558949c-246.731527 0-446.746141 200.00622-446.746141 446.727391s200.014615 446.727391 446.746141 446.727391 446.746141-200.00622 446.746141-446.727391S774.252663 48.558949 527.521137 48.558949zM527.521137 790.815123c-31.452636 0-56.950404-25.496697-56.950404-56.948013s25.497767-56.948013 56.950404-56.948013 56.950404 25.496697 56.950404 56.948013S558.973773 790.815123 527.521137 790.815123zM584.47154 549.187971c0 31.451316-25.497767 56.948013-56.950404 56.948013s-56.950404-25.496697-56.950404-56.948013L470.570733 306.138422c0-31.450293 25.497767-56.94699 56.950404-56.94699s56.950404 25.496697 56.950404 56.948013L584.47154 549.187971z" fill="#fcab18" p-id="942"></path></svg>