<?xml version="1.0" standalone="no"?><!DOCTYPE svg PUBLIC "-//W3C//DTD SVG 1.1//EN" "http://www.w3.org/Graphics/SVG/1.1/DTD/svg11.dtd"><svg t="1649579850722" class="icon" viewBox="0 0 1024 1024" version="1.1" xmlns="http://www.w3.org/2000/svg" p-id="1153" xmlns:xlink="http://www.w3.org/1999/xlink" width="200" height="200"><defs><style type="text/css">@font-face { font-family: feedback-iconfont; src: url("//at.alicdn.com/t/font_1031158_u69w8yhxdu.woff2?t=1630033759944") format("woff2"), url("//at.alicdn.com/t/font_1031158_u69w8yhxdu.woff?t=1630033759944") format("woff"), url("//at.alicdn.com/t/font_1031158_u69w8yhxdu.ttf?t=1630033759944") format("truetype"); }
</style></defs><path d="M0 512c0 282.4 229.6 512 512 512s512-229.6 512-512S794.4 0 512 0 0 229.6 0 512z" fill="#777f8a" p-id="1154"></path><path d="M709.6 824H315.2c-36 0-65.6-29.6-65.6-65.6 0-117.6 95.2-213.6 213.6-213.6h98.4c117.6 0 213.6 95.2 213.6 213.6 0 36-28.8 65.6-65.6 65.6zM512 528c-90.4 0-164-73.6-164-164S421.6 200 512 200s164 73.6 164 164C676.8 455.2 602.4 528 512 528z" fill="#777f8a" p-id="1155"></path><path d="M709.6 824H315.2c-36 0-65.6-29.6-65.6-65.6 0-117.6 95.2-213.6 213.6-213.6h98.4c117.6 0 213.6 95.2 213.6 213.6 0 36-28.8 65.6-65.6 65.6zM512.8 528c-90.4 0-164-73.6-164-164C348 273.6 421.6 200 512 200s164 73.6 164 164C676.8 455.2 602.4 528 512.8 528z" fill="#777f8a" p-id="1156"></path></svg>